 <svg  version="1.0" xmlns="http://www.w3.org/2000/svg"  width="300.000000pt" height="353.000000pt" viewBox="0 0 300.000000 353.000000"  preserveAspectRatio="xMidYMid meet">  <g transform="translate(0.000000,353.000000) scale(0.100000,-0.100000)" fill="#d31717" stroke="none"> <path d="M1317 3053 c-4 -3 -7 -12 -7 -20 0 -16 47 -18 52 -1 3 8 16 7 46 -5 51 -20 55 -21 46 -4 -6 9 -5 9 7 0 8 -7 34 -15 57 -19 37 -6 42 -4 36 10 -4 10 -13 14 -24 11 -9 -3 -37 4 -61 15 -42 19 -138 27 -152 13z"/> <path d="M1225 3014 l-30 -15 30 7 c17 3 35 7 42 8 7 1 16 5 19 9 13 12 -30 6 -61 -9z"/> <path d="M1577 3017 c-3 -8 0 -20 6 -26 13 -13 31 -15 23 -2 -4 5 3 7 14 4 16 -4 19 -2 14 11 -3 9 -10 16 -14 16 -5 0 -15 3 -23 6 -8 3 -17 -1 -20 -9z"/> <path d="M1663 2923 c-7 -2 -10 -10 -7 -18 3 -7 1 -16 -5 -20 -10 -6 -16 8 -12 28 1 5 -3 6 -9 2 -6 -3 -8 -12 -4 -18 3 -7 -1 -5 -8 4 -12 15 -17 15 -38 3 l-25 -13 23 -1 c23 0 82 -29 82 -40 0 -3 7 -14 15 -24 14 -19 15 -18 41 7 l26 27 -38 -3 c-29 -1 -39 2 -39 13 0 11 11 15 43 15 23 0 42 3 42 6 0 19 -63 42 -87 32z"/> <path d="M1357 2905 c-49 -17 -57 -25 -26 -25 14 0 35 7 47 16 12 8 22 10 22 5 0 -6 12 -11 28 -11 l27 0 -29 15 c-15 8 -29 15 -30 15 0 -1 -18 -7 -39 -15z"/> <path d="M1210 2875 c-8 -10 -22 -14 -36 -11 -12 3 -27 0 -33 -8 -9 -11 -4 -12 31 -5 73 15 114 27 96 28 -9 1 -23 3 -31 6 -7 3 -20 -1 -27 -10z"/> <path d="M1384 2882 c5 -8 -1 -12 -15 -12 -12 0 -20 -2 -17 -5 2 -3 31 -1 64 4 36 5 47 9 27 10 -17 0 -39 4 -49 8 -12 4 -15 3 -10 -5z"/> <path d="M1072 2858 c-31 -19 -44 -48 -21 -48 5 0 7 5 4 10 -3 6 -1 10 4 10 12 0 55 40 49 45 -2 2 -18 -5 -36 -17z"/> <path d="M1766 2872 c-7 -12 3 -42 14 -42 18 0 22 22 7 37 -9 9 -17 11 -21 5z"/> <path d="M1499 2855 c-3 -2 -33 -8 -68 -14 -36 -6 -69 -16 -75 -22 -8 -9 -6 -10 9 -5 11 4 36 10 55 12 31 4 29 2 -12 -11 -26 -8 -50 -20 -53 -25 -3 -5 13 -2 37 6 24 9 83 17 131 19 l88 4 20 -32 20 -32 -3 28 c-2 15 -6 26 -9 25 -4 -2 -16 6 -28 16 -23 21 -68 27 -90 11 -11 -7 -13 -7 -8 2 7 11 -6 27 -14 18z"/> <path d="M1230 2820 c0 -5 -9 -12 -20 -15 -11 -3 -25 -15 -30 -25 -9 -18 -8 -18 21 -8 20 7 27 13 19 18 -8 5 -3 11 16 17 23 8 25 11 11 16 -9 3 -17 2 -17 -3z"/> <path d="M1725 2818 c-11 -6 -21 -12 -23 -13 -9 -7 -19 -65 -11 -65 5 0 9 6 9 14 0 8 12 28 26 45 28 34 28 36 -1 19z"/> <path d="M1795 2820 c-4 -6 -2 -16 3 -23 10 -13 26 -67 24 -79 -1 -4 5 -5 13 -2 13 5 13 8 0 21 -17 17 -19 39 -5 48 6 3 10 1 10 -4 0 -6 7 -11 15 -11 13 0 13 3 3 20 -7 11 -18 20 -25 20 -7 0 -13 5 -13 10 0 13 -17 13 -25 0z"/> <path d="M1300 2803 c-61 -28 -160 -95 -160 -108 0 -14 5 -14 98 3 28 5 52 6 52 3 0 -3 34 -7 75 -8 61 -3 75 0 75 12 0 10 -10 15 -32 14 -32 -1 -32 -1 -8 -10 18 -6 15 -7 -15 -2 -62 9 -168 10 -192 2 -13 -5 -23 -5 -23 1 0 5 9 12 20 15 11 3 20 10 20 15 0 5 27 19 60 31 56 20 78 34 68 44 -2 2 -19 -3 -38 -12z"/> <path d="M1120 2792 c-14 -9 -29 -23 -33 -30 -5 -7 -30 -42 -57 -77 -34 -45 -42 -60 -25 -49 13 8 31 26 39 40 9 13 33 33 54 44 33 18 34 19 10 16 -16 -3 -28 -2 -28 2 1 11 50 43 58 38 4 -2 14 0 22 6 12 8 11 9 -4 4 -13 -5 -17 -2 -12 9 7 18 7 18 -24 -3z"/> <path d="M995 2768 c-14 -36 -10 -54 6 -25 6 10 25 24 42 32 21 10 25 14 10 11 -13 -2 -23 0 -23 5 0 21 -22 6 -35 -23z"/> <path d="M1594 2693 c0 -9 -9 -17 -24 -20 -14 -2 -26 -8 -28 -13 -2 -5 -14 -2 -27 6 -13 9 -28 13 -34 10 -5 -3 -12 0 -14 6 -4 9 -6 8 -6 -2 -1 -18 -58 -24 -94 -11 -14 6 -29 6 -38 0 -10 -6 -8 -9 11 -9 23 -1 23 -2 -8 -15 -18 -8 -39 -12 -47 -9 -8 4 -15 1 -15 -5 0 -6 -13 -11 -29 -11 -17 0 -33 -5 -37 -11 -5 -9 4 -10 32 -5 28 5 35 4 24 -3 -8 -6 -23 -11 -33 -11 -10 0 -15 -4 -12 -10 3 -5 0 -11 -7 -11 -23 -2 -32 -5 -60 -17 -34 -14 -37 -25 -5 -13 22 8 23 7 19 -15 l-5 -25 30 28 c48 46 72 63 89 63 10 0 14 6 10 15 -3 10 1 15 13 15 11 0 22 -6 24 -12 3 -7 6 -3 6 10 1 23 15 30 26 12 3 -5 1 -10 -4 -10 -6 0 -11 -4 -11 -10 0 -5 19 0 43 10 23 11 56 19 72 19 26 0 28 -2 10 -10 -30 -14 75 0 121 16 22 7 39 18 38 24 -2 25 -5 29 -18 34 -8 3 -13 -1 -12 -10z"/> <path d="M1697 2675 c-7 -16 18 -34 34 -24 11 7 10 9 -5 9 -20 0 -20 0 0 14 18 14 18 15 -3 13 -12 -1 -24 -6 -26 -12z"/> <path d="M918 2649 c-30 -22 -38 -42 -14 -33 12 5 53 55 44 54 -2 0 -15 -10 -30 -21z"/> <path d="M1886 2662 c-3 -6 -3 -12 1 -15 5 -2 2 -2 -4 -1 -7 2 -27 -4 -45 -12 l-33 -15 47 4 c26 3 49 2 51 -2 2 -3 2 0 1 7 -2 6 4 12 14 13 14 0 14 2 2 6 -8 3 -18 10 -21 16 -4 6 -9 5 -13 -1z"/> <path d="M1118 2643 c-34 -5 -37 -20 -5 -25 31 -4 77 3 77 12 0 5 -10 6 -22 2 -14 -3 -19 -2 -14 6 4 7 4 11 -1 11 -4 -1 -20 -4 -35 -6z"/> <path d="M904 2579 c-25 -41 3 -284 38 -324 4 -5 8 -21 8 -36 0 -25 10 -50 35 -89 5 -8 10 -54 12 -102 1 -48 6 -95 11 -105 5 -10 13 -42 17 -72 6 -46 5 -53 -8 -48 -12 5 -13 1 -3 -26 6 -18 13 -34 16 -37 10 -10 29 -48 54 -112 25 -63 28 -105 11 -150 -5 -12 -2 -18 8 -18 11 0 13 -7 6 -37 -15 -70 -34 -128 -43 -135 -6 -4 -5 -12 2 -21 6 -7 11 -31 10 -53 -1 -21 2 -61 7 -89 4 -27 9 -61 9 -75 1 -20 7 -26 29 -28 15 -2 27 -9 27 -18 0 -8 5 -14 12 -14 6 0 9 -3 5 -6 -5 -5 10 -25 71 -92 12 -14 22 -28 22 -32 0 -11 120 -134 125 -128 3 3 -8 22 -25 44 -16 21 -49 66 -72 99 -23 33 -71 89 -106 124 -62 64 -64 66 -79 149 -16 85 -13 127 18 226 5 16 9 64 9 107 l0 78 63 -62 c100 -98 135 -119 221 -136 44 -9 69 -9 157 3 28 4 84 30 92 43 4 7 12 13 17 13 20 0 172 167 192 208 10 24 17 46 15 48 -5 6 -47 -63 -47 -77 0 -5 -5 -9 -11 -9 -6 0 -17 -7 -25 -15 -9 -8 -25 -15 -37 -15 -18 0 -19 -2 -7 -10 12 -8 10 -14 -15 -40 -16 -16 -37 -30 -47 -30 -10 0 -18 -5 -18 -10 0 -17 -53 -60 -67 -55 -7 2 -13 -3 -13 -11 0 -8 -4 -13 -9 -9 -5 3 -12 1 -16 -4 -3 -6 -12 -8 -20 -4 -9 3 -15 -1 -15 -8 0 -11 -2 -11 -8 -1 -7 10 -15 10 -36 2 -39 -14 -40 -14 -60 26 -9 20 -19 34 -22 31 -3 -3 2 -17 11 -31 19 -28 12 -32 -33 -20 -14 4 -21 12 -18 20 3 8 1 14 -4 14 -6 0 -10 -5 -10 -10 0 -6 -8 -5 -20 2 -11 7 -18 19 -15 26 3 7 1 10 -4 7 -5 -3 -12 -1 -16 4 -3 6 -12 8 -20 4 -11 -4 -13 -1 -9 11 5 12 2 15 -10 10 -13 -5 -16 2 -17 37 -2 30 -3 35 -6 17 -2 -16 -8 -28 -12 -28 -4 0 -23 15 -43 34 -19 18 -41 35 -48 38 -20 6 -70 147 -70 195 0 23 -4 44 -8 47 -5 3 -9 21 -10 41 -1 19 -5 43 -10 53 -5 9 -15 48 -23 85 -10 54 -10 77 -1 113 15 54 16 114 2 114 -14 0 -25 51 -12 59 7 4 9 17 4 36 -6 22 -15 30 -33 32 -16 1 -18 0 -5 -4 15 -4 17 -11 12 -41 -3 -21 -6 -45 -6 -56 0 -15 -2 -16 -15 -6 -11 9 -12 15 -5 20 8 5 7 15 -1 36 -6 16 -13 44 -14 63 -2 19 -8 37 -14 40 -12 8 -17 137 -7 169 9 23 -7 32 -20 11z"/> <path d="M1810 2584 c0 -3 8 -17 19 -30 23 -29 37 -94 22 -103 -6 -4 -2 -25 14 -56 13 -28 30 -84 39 -126 9 -42 22 -105 30 -140 15 -64 12 -106 -14 -174 -6 -16 -15 -53 -20 -84 -5 -31 -12 -69 -15 -86 -5 -24 -4 -27 5 -15 8 11 9 3 4 -35 -4 -27 -3 -47 1 -43 4 4 11 47 16 95 5 61 18 116 42 178 41 107 51 159 41 211 -7 36 -8 37 -15 14 -4 -14 -8 -52 -9 -85 l-2 -60 -15 59 c-10 44 -11 67 -4 89 6 16 8 33 5 38 -3 5 0 9 5 9 20 0 11 16 -8 17 -11 1 -22 -6 -24 -15 -3 -9 -5 -1 -6 19 0 20 -8 53 -16 72 -8 20 -15 48 -15 62 0 14 -3 25 -7 25 -5 0 -9 12 -9 28 -1 15 -4 39 -8 55 -4 18 -2 27 5 27 7 0 4 9 -7 21 -20 23 -54 43 -54 33z"/> <path d="M1886 2483 c9 -52 20 -62 16 -13 -2 22 -8 43 -14 46 -6 4 -7 -9 -2 -33z"/> <path d="M1092 2483 c-7 -10 -10 -11 -6 -3 4 8 -5 4 -20 -10 -15 -14 -32 -34 -38 -45 -6 -14 -2 -12 15 7 17 18 28 23 35 16 7 -7 14 -3 22 11 15 29 9 46 -8 24z"/> <path d="M1966 2419 c3 -22 2 -39 -5 -43 -6 -4 -11 1 -12 11 0 16 -1 16 -9 -2 -5 -12 -9 -14 -9 -6 -1 8 -4 11 -7 8 -9 -8 24 -77 36 -77 12 0 40 53 40 75 0 9 -4 13 -10 10 -5 -3 -10 2 -10 12 0 10 -5 25 -11 33 -7 11 -8 5 -3 -21z"/> <path d="M1300 2339 c0 -6 -6 -9 -12 -6 -13 4 -103 -24 -115 -36 -3 -4 -16 -7 -27 -7 -12 0 -16 4 -11 8 6 4 11 15 11 24 2 16 -1 16 -25 3 -35 -17 -48 -33 -56 -68 -6 -21 -4 -27 9 -27 9 0 16 8 16 19 0 26 17 30 135 29 74 0 107 -4 127 -16 16 -9 28 -20 28 -24 0 -4 4 -8 10 -8 6 0 6 9 1 23 -5 12 -16 21 -25 19 -9 -2 -16 4 -16 13 0 8 -5 15 -11 15 -5 0 -7 5 -4 10 7 12 -12 40 -26 40 -5 0 -9 -5 -9 -11z m3 -26 c3 -5 -5 -9 -16 -9 -12 -1 -40 -4 -62 -8 l-40 -6 45 14 c54 17 67 18 73 9z"/> <path d="M1616 2333 c-22 -12 -30 -12 -36 -3 -5 7 -7 2 -7 -14 0 -26 0 -26 23 -11 32 21 41 19 19 -5 -18 -19 -17 -20 3 -20 12 0 22 5 22 10 0 6 11 10 25 10 14 0 25 4 25 10 0 5 7 7 16 3 15 -6 15 -8 -2 -21 -18 -14 -18 -14 1 -9 46 12 140 18 125 8 -12 -9 -12 -11 -1 -11 8 0 20 -8 27 -17 20 -29 29 -6 12 31 -18 36 -56 54 -65 30 -6 -15 -34 -19 -48 -6 -11 9 -87 33 -101 31 -5 -1 -22 -8 -38 -16z"/> <path d="M1390 2201 c16 -32 12 -37 -37 -48 l-48 -11 49 5 c48 6 48 6 36 -18 -7 -13 -31 -43 -53 -66 -23 -24 -37 -43 -32 -43 13 0 95 79 95 91 0 6 4 8 9 5 18 -12 28 19 19 62 -7 32 -14 42 -29 42 -16 0 -18 -3 -9 -19z"/> <path d="M1524 2193 c-5 -17 -3 -28 4 -31 7 -2 12 -10 12 -17 0 -14 84 -105 96 -105 4 0 -12 20 -35 45 -22 24 -41 54 -41 65 0 11 -6 20 -12 20 -9 0 -9 3 -2 8 6 4 13 15 17 25 5 12 1 17 -13 17 -13 0 -22 -9 -26 -27z"/> <path d="M1645 2209 c-43 -10 -71 -29 -43 -29 9 0 20 5 23 10 10 17 32 11 38 -10 3 -13 14 -20 30 -20 17 0 28 7 32 20 7 23 14 24 39 5 20 -15 14 -35 -11 -35 -21 0 -8 -13 17 -17 12 -2 20 3 20 12 0 10 10 15 27 15 37 0 20 14 -47 39 -60 23 -66 23 -125 10z"/> <path d="M1198 2193 c-19 -8 -34 -10 -37 -4 -4 5 -14 -4 -23 -20 -16 -28 -16 -29 1 -29 11 0 21 -7 25 -15 3 -8 12 -12 21 -9 20 8 19 24 -1 24 -19 0 -14 20 9 34 13 8 20 6 30 -8 20 -27 59 -17 68 17 7 26 6 27 -27 25 -19 -1 -49 -8 -66 -15z"/> <path d="M931 2038 c0 -18 7 -49 14 -68 l14 -35 -5 35 c-3 19 -6 50 -7 67 -3 43 -17 43 -16 1z"/> <path d="M1407 2033 c-4 -3 -7 -14 -7 -23 0 -9 -14 -26 -31 -39 -22 -17 -29 -29 -27 -48 2 -15 10 -28 18 -30 13 -4 13 -3 0 6 -12 8 -12 13 0 35 13 26 30 35 30 16 0 -5 4 -10 9 -10 6 0 13 20 17 45 6 46 3 61 -9 48z"/> <path d="M1520 2029 c0 -17 43 -60 78 -78 31 -16 28 -47 -5 -59 -23 -9 -25 -11 -7 -11 11 -1 29 8 39 19 15 17 16 24 7 45 -7 14 -20 28 -29 32 -10 3 -33 20 -50 36 -23 21 -33 26 -33 16z"/> <path d="M1531 1899 c-12 -10 -27 -19 -34 -22 -6 -2 -9 -8 -5 -12 6 -6 88 40 88 50 0 8 -31 -2 -49 -16z"/> <path d="M1400 1852 c0 -4 -15 -13 -32 -21 -33 -12 -33 -13 -10 -23 13 -7 21 -17 18 -25 -8 -21 4 -15 25 11 11 14 28 28 39 31 11 4 20 11 20 17 0 5 -7 8 -15 4 -8 -3 -15 -1 -15 4 0 6 -7 10 -15 10 -8 0 -15 -4 -15 -8z"/> <path d="M1605 1835 c26 -14 50 -24 52 -21 8 8 -60 46 -81 46 -11 0 1 -11 29 -25z"/> <path d="M1538 1817 c-19 -18 -23 -28 -17 -45 5 -12 15 -22 24 -22 18 0 19 12 3 28 -9 9 -9 12 1 12 7 0 9 5 5 13 -5 9 -4 9 6 0 9 -8 19 -9 30 -3 13 7 22 5 30 -5 7 -8 18 -15 25 -15 6 0 20 -9 31 -21 18 -20 18 -20 -10 -13 -21 5 -27 4 -22 -5 4 -6 16 -11 27 -11 11 0 33 -7 49 -15 30 -15 30 -15 30 13 0 29 -26 62 -49 62 -6 0 -14 7 -17 15 -5 12 -10 13 -20 4 -13 -10 -45 -1 -95 27 -4 2 -18 -7 -31 -19z"/> <path d="M1432 1804 c-12 -8 -26 -23 -31 -32 -8 -15 -5 -18 25 -19 28 0 34 3 34 20 0 16 -3 18 -12 9 -24 -24 -31 -12 -8 13 27 29 24 32 -8 9z"/> <path d="M1287 1782 c-17 -14 -33 -26 -34 -27 -1 0 -5 -15 -8 -34 -3 -19 -2 -30 4 -27 5 4 12 -3 16 -14 4 -11 11 -18 16 -15 5 4 2 13 -7 22 -14 15 -12 18 35 41 53 26 64 40 17 23 -15 -6 -26 -7 -26 -1 0 5 9 11 19 15 11 3 24 12 30 19 9 11 7 15 -9 19 -13 3 -32 -4 -53 -21z"/> <path d="M1378 1723 c-21 -2 -38 -9 -38 -14 0 -15 29 -22 43 -11 17 14 49 18 66 8 21 -14 98 -8 128 9 28 16 28 16 -22 10 -64 -7 -63 -7 -105 -2 -19 2 -52 3 -72 0z"/> <path d="M1455 1620 c-11 -4 -23 -6 -27 -3 -5 2 -8 -5 -8 -16 0 -12 6 -22 13 -23 36 -4 43 -4 52 3 6 4 17 4 25 -1 8 -6 26 -9 40 -9 14 0 19 3 13 6 -7 2 -13 9 -13 14 0 6 5 7 10 4 6 -3 10 1 10 9 0 10 -9 16 -22 17 -13 0 -34 2 -48 3 -14 2 -34 0 -45 -4z"/> <path d="M1820 1487 c0 -32 -9 -58 -37 -103 -82 -134 -155 -273 -173 -334 -12 -38 -37 -87 -59 -115 -22 -28 -65 -85 -96 -127 -51 -70 -55 -79 -44 -100 13 -23 13 -23 21 10 5 17 13 32 19 32 6 0 9 6 6 14 -3 8 5 24 19 37 13 12 24 28 24 35 0 7 23 36 50 64 28 28 50 56 50 63 0 18 56 177 74 212 9 17 16 24 16 17 0 -7 -7 -27 -16 -45 -10 -17 -17 -44 -16 -59 0 -16 -4 -26 -9 -23 -5 4 -9 -3 -9 -14 0 -12 4 -21 9 -21 12 0 47 68 56 108 8 39 20 33 50 -25 11 -21 23 -40 27 -43 4 -4 11 -21 14 -40 6 -28 5 -32 -8 -27 -12 4 -14 1 -11 -14 7 -27 25 -19 34 14 6 21 -2 45 -33 104 -22 43 -48 85 -59 94 -18 16 -18 17 1 34 11 10 20 23 20 30 0 7 10 23 23 37 12 13 23 33 25 43 2 10 13 31 25 47 15 20 21 43 21 78 0 28 3 45 8 37 5 -8 8 -7 8 6 0 9 -7 17 -15 17 -11 0 -15 -11 -15 -43z"/> <path d="M2000 1282 c0 -14 72 -43 233 -92 103 -32 60 -5 -55 34 -62 21 -125 45 -140 52 -31 16 -38 17 -38 6z"/> <path d="M2304 1172 c4 -6 13 -9 20 -6 7 3 20 -2 28 -10 8 -8 33 -17 54 -21 27 -4 34 -3 24 3 -8 6 -24 12 -35 14 -11 1 -22 6 -25 10 -10 13 -74 23 -66 10z"/> <path d="M955 1050 c-10 -11 -42 -33 -71 -50 -30 -17 -60 -43 -69 -59 -23 -45 -19 -45 22 0 36 40 97 74 114 63 5 -3 9 -13 9 -22 0 -10 13 -32 29 -50 17 -17 28 -32 25 -32 -15 0 61 -53 102 -72 52 -22 77 -42 67 -52 -4 -3 -1 -6 6 -6 19 0 71 -42 64 -53 -3 -6 -1 -7 5 -3 7 4 12 2 12 -4 0 -6 4 -9 8 -6 5 3 26 -1 48 -9 36 -12 39 -16 36 -48 -2 -25 1 -36 13 -41 17 -6 55 9 55 22 0 18 -59 63 -120 90 -36 17 -82 46 -103 65 -21 20 -53 41 -70 48 -49 20 -102 65 -137 117 -26 39 -30 53 -26 85 7 43 6 44 -19 17z"/> <path d="M779 978 c-7 -12 -14 -48 -15 -78 -2 -62 -29 -177 -46 -197 -8 -10 -8 -17 -1 -24 8 -8 16 5 27 44 9 30 16 62 16 71 0 9 6 32 14 50 10 24 11 37 4 44 -8 8 -6 25 5 59 17 53 16 67 -4 31z"/> <path d="M1537 870 c-14 -16 -29 -40 -32 -52 -4 -13 -14 -31 -23 -40 -8 -10 -11 -18 -6 -18 5 0 30 32 56 70 47 71 50 94 5 40z"/> <path d="M308 841 c2 -17 8 -34 13 -37 5 -3 9 -17 9 -32 1 -15 12 -47 25 -72 29 -55 31 -48 6 27 -11 32 -22 69 -25 83 -3 14 -11 34 -19 44 -13 18 -14 17 -9 -13z"/> <path d="M242 813 c-13 -14 -30 -42 -38 -62 -53 -121 -134 -360 -134 -391 0 -12 -9 -58 -19 -103 -32 -135 -34 -171 -10 -198 l21 -24 -7 62 c-6 57 3 113 25 168 5 11 14 51 20 90 6 38 15 74 19 80 5 5 14 35 22 65 7 30 21 72 31 92 10 21 18 44 18 52 0 23 28 27 35 5 4 -10 10 -19 15 -19 5 0 2 16 -6 35 -20 49 -18 82 5 90 12 4 18 12 14 21 -3 8 0 21 7 29 22 27 5 34 -18 8z"/> <path d="M2668 796 c-16 -24 -28 -48 -28 -54 0 -6 -3 -12 -7 -14 -14 -6 -64 -78 -54 -78 11 0 66 74 105 143 34 59 21 62 -16 3z"/> <path d="M2794 768 c9 -81 -75 -249 -166 -335 -44 -42 -98 -73 -114 -66 -9 3 -14 -2 -14 -15 0 -19 2 -19 53 7 108 55 191 164 263 346 7 19 8 18 11 -5 2 -14 8 -34 13 -45 5 -11 11 -31 13 -45 2 -14 7 -32 10 -40 17 -44 47 -190 41 -206 -5 -16 -4 -16 5 -4 9 13 11 13 12 0 5 -71 7 -89 13 -99 4 -6 2 -11 -5 -11 -8 0 -7 -6 4 -18 9 -10 19 -35 23 -56 3 -22 10 -48 14 -60 8 -20 9 -20 9 4 0 14 -4 43 -9 65 -5 22 -14 78 -19 125 -15 116 -62 296 -107 402 -38 91 -56 111 -50 56z"/> <path d="M591 738 c-7 -21 -16 -38 -19 -38 -11 0 -57 -106 -67 -153 -2 -10 -7 -28 -11 -40 -6 -22 -6 -22 8 -2 8 11 20 40 27 65 7 25 29 73 48 107 19 35 33 71 31 80 -3 12 -8 6 -17 -19z"/> <path d="M2390 766 c0 -10 44 -76 52 -76 10 0 -20 56 -37 70 -8 7 -15 10 -15 6z"/> <path d="M260 732 c0 -4 24 -39 53 -77 28 -39 60 -82 70 -95 l18 -25 -7 25 c-4 14 -11 28 -16 31 -5 3 -6 14 -2 25 4 14 3 15 -4 5 -7 -10 -17 -2 -43 35 -18 27 -36 51 -41 52 -4 2 -8 10 -8 18 0 8 -4 14 -10 14 -5 0 -10 -3 -10 -8z"/> <path d="M644 658 c-48 -52 -74 -89 -74 -107 0 -9 10 -1 23 19 12 19 42 54 66 78 26 24 38 42 30 42 -8 0 -29 -15 -45 -32z"/> <path d="M702 633 c-6 -15 -18 -52 -27 -80 -9 -29 -21 -55 -26 -59 -5 -3 -7 -9 -4 -14 3 -5 1 -11 -5 -15 -5 -3 -10 -11 -10 -17 0 -6 9 0 19 14 20 25 76 186 68 194 -2 3 -9 -8 -15 -23z"/> <path d="M2211 527 c12 -27 47 -47 81 -47 22 0 18 12 -5 16 -21 4 -63 29 -64 39 -1 5 -6 11 -12 13 -8 3 -8 -3 0 -21z"/> <path d="M360 504 c0 -8 51 -98 62 -109 18 -18 -3 37 -30 77 -24 36 -32 45 -32 32z"/> <path d="M1489 323 c-8 -16 -18 -31 -22 -34 -5 -4 -7 -16 -5 -29 2 -18 8 -11 30 34 27 55 25 82 -3 29z"/> <path d="M570 291 c0 -16 -3 -38 -6 -48 -5 -12 -4 -15 4 -8 16 15 27 85 13 85 -6 0 -11 -13 -11 -29z"/> <path d="M651 223 c1 -62 6 -56 11 15 2 23 0 42 -4 42 -5 0 -7 -26 -7 -57z"/> <path d="M2541 257 c-6 -8 -8 -17 -4 -20 3 -4 -1 -7 -9 -7 -9 0 -19 -12 -23 -27 -4 -16 -10 -22 -12 -15 -7 17 -23 5 -23 -18 0 -11 -11 -53 -24 -95 -13 -41 -21 -75 -17 -75 9 0 20 24 62 122 15 37 37 77 48 90 12 12 21 30 21 40 0 22 -4 22 -19 5z"/> <path d="M280 177 c0 -8 37 -63 58 -85 22 -24 13 -2 -15 36 -36 50 -43 57 -43 49z"/> <path d="M2728 160 c-7 -11 -18 -20 -25 -20 -7 0 -13 -7 -13 -15 0 -8 -4 -15 -9 -15 -4 0 -25 -25 -45 -55 -47 -72 -31 -71 25 1 24 31 54 68 67 82 21 23 28 42 17 42 -3 0 -10 -9 -17 -20z"/> <path d="M725 120 c3 -5 0 -10 -7 -12 -9 -3 -8 -13 4 -39 8 -19 18 -41 21 -49 3 -8 6 -2 6 13 1 18 5 26 12 21 7 -4 10 -1 7 7 -3 8 -14 15 -26 17 -36 5 -25 20 18 24 28 2 40 0 40 -9 0 -7 -4 -13 -10 -13 -5 0 -9 -17 -9 -37 1 -26 3 -31 6 -14 3 13 13 33 23 44 17 18 17 21 3 35 -15 16 -97 27 -88 12z"/> <path d="M1325 10 c-4 -6 8 -10 30 -10 22 0 34 4 30 10 -8 13 -52 13 -60 0z"/> </g> </svg> 